<svg width="1600" height="1200" viewBox="0 0 1600 1200" fill="none" xmlns="http://www.w3.org/2000/svg">
<g id="pixeltrue-vision 1">
<g id="background">
<g id="Group">
<g id="Group_2">
<path id="Vector" d="M78.7 940.3C148.2 909.3 227.1 913.3 300 928.7C377.1 945 451.3 973.4 529.1 986.6C572.2 993.9 616.2 996.5 659.6 989.7C661.5 989.4 660.7 986.5 658.8 986.8C578.2 999.3 497.6 979.3 420.5 957.5C346.7 936.6 272 913.4 194.4 914C154.2 914.3 114.1 921.3 77.2 937.7C75.4 938.5 76.9 941.1 78.7 940.3Z" fill="#E8E8E8"/>
</g>
</g>
<g id="Group_3">
<g id="Group_4">
<path id="Vector_2" d="M467.9 966.1C562.1 968 653.3 941.9 745.4 926.4C772.3 921.9 799.4 918.3 826.7 916.5C828.6 916.4 828.6 913.4 826.7 913.5C732.4 919.7 641.5 947.9 547.9 958.9C521.4 962 494.7 963.7 468 963.2C465.9 963.1 465.9 966.1 467.9 966.1Z" fill="#E8E8E8"/>
</g>
</g>
<g id="Group_5">
<g id="Group_6">
<path id="Vector_3" d="M908.2 932.5C941.7 925.3 976.4 924.1 1010.3 929.3C1041.5 934.1 1071.4 944.4 1100.9 955.4C1130 966.2 1158.9 977.7 1189.1 985.4C1220.3 993.3 1252 995.3 1284.2 995.3C1322.2 995.3 1360.5 993.8 1397.8 1002.2C1399.7 1002.6 1400.5 999.7 1398.6 999.3C1332.7 984.5 1264.4 999.5 1198.5 984.5C1137 970.5 1080.8 939 1018.6 927.7C981.8 921 944 921.8 907.5 929.6C905.5 930 906.3 932.9 908.2 932.5Z" fill="#E8E8E8"/>
</g>
</g>
<g id="Group_7">
<g id="Group_8">
<path id="Vector_4" d="M362 548C353.4 545.4 336.5 538.3 342.8 526.3C347.3 517.7 360.7 517 369 517.3C397 518.1 425 520.5 453 518.2C479.3 516 504.4 508.5 530 502.5C556 496.3 583.5 491.8 609.7 499.4C621.2 502.7 631.9 508.2 643.2 512C648.6 513.8 654.2 515.2 659.9 515.8C666.7 516.5 673.5 515.5 680.2 515.2C687.1 514.9 694.2 515.1 700.1 519.2C705.5 522.9 710 529.9 706.5 536.4C701.5 545.8 686.9 543.2 678.5 541.4C653.6 536.2 628.5 534.6 603.2 538C589.8 539.8 576.7 543.1 563.9 547.2C550.1 551.6 536.7 555.5 522 553.5C508.3 551.6 495.2 547.2 481.3 546.7C467.4 546.1 453.6 547.9 439.9 549.7C413.3 553.3 384.9 557.9 360 545C358.3 544.1 356.8 546.7 358.5 547.6C381.8 559.7 408.1 556.9 433.3 553.6C446.5 551.8 459.8 549.9 473.2 549.6C487.9 549.3 501.6 552.7 515.9 555.5C530.5 558.3 543.7 556.8 557.9 552.4C572 548 585.9 543.7 600.5 541.5C615.6 539.2 630.9 538.6 646.1 539.7C659.6 540.6 672.5 544.2 685.8 545.7C693.7 546.6 703.8 546.3 708.7 538.9C714.3 530.4 708.3 520.5 700.6 515.8C688.9 508.7 674.4 513.7 661.7 512.9C647.7 512 634.8 505.5 621.9 500.5C595.1 490.1 567.7 491.4 540 497.3C510.7 503.5 482.2 513 452.2 515.4C434.9 516.8 417.4 516.5 400.1 515.8C391.1 515.4 382 515 373 514.6C367.4 514.4 361.9 514.3 356.4 515.4C347.9 517.1 338.2 522.1 338.8 532.2C339.5 543.3 352.3 548.4 361.3 551.1C363 551.5 363.8 548.6 362 548Z" fill="#E8E8E8"/>
</g>
</g>
<g id="Group_9">
<g id="Group_10">
<path id="Vector_5" d="M1100 179.1C1091.4 177.9 1077.3 174.8 1074.8 165C1071.2 151.4 1090.6 147.1 1100 145.4C1127.5 140.7 1155.7 145 1183.4 145C1238.3 144.9 1292.4 134.5 1347 130.6C1374.3 128.6 1401.8 128.3 1429 131.8C1435.2 132.6 1441.7 133.2 1447.7 135C1450.2 135.7 1453 136.9 1454.9 138.7C1459.5 143.2 1455 147.3 1450.8 149.5C1440 155.2 1427.7 157.5 1415.6 158C1391.4 159.1 1367.3 154.1 1343.1 155C1331.8 155.4 1320.7 157.3 1310 161.2C1297.5 165.8 1285.9 172.3 1273.3 176.6C1258.7 181.6 1243.3 184.1 1227.8 184.1C1212.1 184.1 1196.6 181.7 1181.1 179.9C1149.7 176.3 1118.2 176.4 1086.9 180.6C1085 180.9 1085 183.9 1086.9 183.6C1117.5 179.5 1148.5 179.2 1179.2 182.7C1194.4 184.4 1209.6 186.8 1225 187.1C1239.2 187.4 1253.5 185.6 1267.2 181.7C1281.2 177.7 1294 170.8 1307.5 165.4C1320.6 160.2 1334.1 157.9 1348.1 157.9C1373.9 157.7 1399.8 163.5 1425.6 160.1C1431.9 159.3 1438 157.9 1444 155.7C1448.6 154 1454.8 151.9 1458.1 148C1464.3 140.5 1455.3 133.9 1448.6 132C1435.4 128.1 1420.5 127.4 1406.8 126.6C1391.9 125.7 1377 125.8 1362.1 126.5C1301.8 129.4 1242.2 142 1181.7 141.8C1164.5 141.8 1147.3 140.2 1130.1 140.1C1115.5 140 1098.8 140.3 1085.1 146C1076.5 149.6 1068.1 158 1072.9 167.9C1077.4 177.2 1090.1 180.4 1099.3 181.7C1101.1 182.3 1101.9 179.4 1100 179.1Z" fill="#E8E8E8"/>
</g>
</g>
<g id="Group_11">
<g id="Group_12">
<path id="Vector_6" d="M132.9 315.6C216.3 279.4 307.7 313.2 384.6 349.5C423.8 368 462.4 387.8 503.3 402.4C543.4 416.7 585.1 426.6 627.4 432.3C712.3 443.8 799.2 438.7 882.7 420C970.2 400.4 1053.1 364.8 1139.9 342.5C1230.2 319.3 1324.6 314.3 1416.7 329.2C1427.9 331 1439 333.1 1450.1 335.5C1452 335.9 1452.8 333 1450.9 332.6C1361.5 313.6 1268.6 312.7 1179 330.5C1089.4 348.3 1005.1 384.7 917.2 408.4C831.9 431.4 742.8 440.7 654.7 432.4C610.9 428.3 567.5 419.8 525.5 406.6C482.1 393 441.4 373.2 400.5 353.6C326.6 318.1 243.2 282.1 159.6 303.2C149.9 305.6 140.6 308.9 131.4 312.9C129.7 313.8 131.2 316.4 132.9 315.6Z" fill="#E8E8E8"/>
</g>
</g>
<g id="Group_13">
<g id="Group_14">
<path id="Vector_7" d="M475.1 279.8C572.8 334.3 689.1 338.4 797.5 323.2C920.2 306 1038.4 265.5 1161.3 249.7C1229.7 240.9 1299.5 239.8 1367.2 254.8C1369.1 255.2 1369.9 252.3 1368 251.9C1248.3 225.5 1125.5 248.8 1008.3 276.1C892.8 303 776 334.4 656.3 326.7C593.8 322.7 531.6 307.8 476.6 277.2C475 276.2 473.5 278.8 475.1 279.8Z" fill="#E8E8E8"/>
</g>
</g>
<g id="Group_15">
<g id="Group_16">
<path id="Vector_8" d="M183.4 93.1C267.4 73.1 357 81 436.2 115.5C475.1 132.4 511.6 154.4 549.8 172.7C588.3 191.1 628.5 203.8 670.9 209.5C719.4 216 768.5 214.9 817.1 211.7C819 211.6 819 208.6 817.1 208.7C773.2 211.6 728.9 212.8 685.1 208.2C640.7 203.5 598.3 191.9 557.8 173.2C519.3 155.3 482.9 133.3 444.2 115.9C406.2 98.5 365.9 87 324.4 82.1C277.1 76.4 228.9 79.2 182.6 90.2C180.7 90.6 181.5 93.5 183.4 93.1Z" fill="#E8E8E8"/>
</g>
</g>
<g id="Group_17">
<g id="Group_18">
<path id="Vector_9" d="M1035.4 699.2C1026.6 697.4 1012.2 692.9 1011.5 682C1011.1 675.3 1016.7 670.4 1022.6 668.6C1029.7 666.3 1037.2 668.4 1044.1 670.4C1056.7 674.1 1069.4 677.1 1082.6 677.6C1094.9 678.1 1107.1 676.3 1119 673.1C1131.8 669.7 1144.3 665.1 1157 661.5C1170.4 657.7 1184.1 655.7 1198.1 655.5C1224.8 655.1 1251.2 659.9 1277.8 661C1291.1 661.5 1304.2 660.8 1317.3 658.8C1331.5 656.6 1346 653.3 1360.5 655C1370.9 656.2 1387.6 663.2 1384.2 676.6C1381.2 688.3 1364.6 694.9 1354.4 698.2C1303.2 714.8 1250.4 687.2 1198.5 694.5C1168.6 698.7 1140.4 711.3 1110.2 713.7C1096.4 714.8 1082.2 713.9 1069.1 709C1057.1 704.4 1046.3 694.4 1032.6 696.8C1030.7 697.1 1031.5 700 1033.4 699.7C1041.6 698.3 1048.8 702.2 1055.7 706C1061.3 709 1066.9 711.8 1073 713.6C1085.5 717.4 1098.9 717.9 1111.9 716.7C1140.5 714 1167.4 702.7 1195.7 698.1C1226.9 693.1 1257.6 700.3 1288.4 704.4C1313.5 707.7 1340.4 708.5 1364 698C1373 694 1385 687.6 1387.3 677C1389.4 667.5 1382.1 659.9 1374.2 656C1362.5 650.3 1348.4 651.4 1336 653.1C1320.9 655.1 1306.2 658.3 1290.9 658.5C1261.1 659 1231.7 652.9 1202 652.8C1187.8 652.8 1173.7 654.4 1159.9 658C1146.2 661.6 1132.9 666.6 1119.3 670.3C1102.5 674.8 1085.6 676.2 1068.4 673.5C1059.8 672.1 1051.7 669.7 1043.4 667.3C1037.2 665.5 1030.5 664 1024 665.4C1014.3 667.5 1005.5 676.7 1009.8 687C1013.7 696.4 1025.6 700.5 1034.8 702.4C1036.4 702.5 1037.2 699.6 1035.4 699.2Z" fill="#E8E8E8"/>
</g>
</g>
<g id="Group_19">
<g id="Group_20">
<path id="Vector_10" d="M586.7 1094.1C624.1 1085.1 660.7 1072.8 696 1057.5C714.3 1049.5 732.2 1040.4 751.7 1035.6C770.4 1030.9 789.8 1029.5 809.1 1030C831.4 1030.5 853.5 1033.5 875.5 1037C877.4 1037.3 878.2 1034.4 876.3 1034.1C838.8 1028.2 800.2 1023.4 762.5 1030.2C743.1 1033.7 725.3 1041.1 707.5 1049.2C688.8 1057.7 669.9 1065.4 650.5 1072.2C629.3 1079.6 607.8 1086 585.9 1091.2C584 1091.6 584.8 1094.5 586.7 1094.1Z" fill="#161616"/>
</g>
</g>
<g id="Group_21">
<g id="Group_22">
<path id="Vector_11" d="M823 1031.1C839.8 1030.7 856.4 1028.3 872.6 1023.6C889.1 1018.9 905.4 1012.3 922.9 1014C931.8 1014.8 940.5 1017.3 949.1 1019.5C958.1 1021.8 967 1024.1 976 1026.4C993.3 1030.8 1010.5 1035.2 1027.8 1039.6C1029.7 1040.1 1030.5 1037.2 1028.6 1036.7C1010.7 1032.1 992.8 1027.6 974.9 1023C958.5 1018.8 941.7 1013.2 924.9 1011.2C908.4 1009.3 892.8 1014.4 877.2 1019.2C859.5 1024.6 841.5 1027.7 823.1 1028.2C821.1 1028.1 821.1 1031.1 823 1031.1Z" fill="#161616"/>
</g>
</g>
<g id="Group_23">
<g id="Group_24">
<path id="Vector_12" d="M998.1 1046.6C1037.4 1037.9 1078.7 1030.4 1118.6 1039.6C1138.4 1044.2 1157 1053 1175.5 1061.1C1194.9 1069.7 1214.4 1078.2 1233.8 1086.8C1235.6 1087.6 1237.1 1085 1235.3 1084.2C1204.9 1070.8 1174.8 1056.3 1143.8 1044.4C1113.8 1032.9 1082.6 1030.6 1050.8 1034.2C1032.8 1036.3 1014.9 1039.8 997.2 1043.8C995.4 1044.1 996.2 1047 998.1 1046.6Z" fill="#161616"/>
</g>
</g>
<g id="Group_25">
<g id="Group_26">
<path id="Vector_13" d="M642.8 1128.8C653.1 1127 663.5 1125.2 673.8 1123.4C684.1 1121.6 694.5 1119.3 704.9 1118.2C714.5 1117.2 724.3 1118.9 733.8 1119.8C744.3 1120.9 754.9 1121.9 765.4 1123C767.3 1123.2 767.3 1120.2 765.4 1120C754.9 1118.9 744.3 1117.9 733.8 1116.8C723.6 1115.8 713.3 1114.1 703 1115.4C682.6 1117.9 662.3 1122.4 642 1125.9C640.1 1126.3 640.9 1129.2 642.8 1128.8Z" fill="#161616"/>
</g>
</g>
</g>
<g id="details">
<path id="Vector_14" d="M392.838 778.3C399.686 778.3 405.238 772.748 405.238 765.9C405.238 759.052 399.686 753.5 392.838 753.5C385.989 753.5 380.438 759.052 380.438 765.9C380.438 772.748 385.989 778.3 392.838 778.3Z" fill="#3F3F3F"/>
<path id="Vector_15" d="M426.338 805.5C429.928 805.5 432.838 802.59 432.838 799C432.838 795.41 429.928 792.5 426.338 792.5C422.748 792.5 419.838 795.41 419.838 799C419.838 802.59 422.748 805.5 426.338 805.5Z" fill="#3F3F3F"/>
<path id="Vector_16" d="M1123.74 170.6C1132.19 170.6 1139.04 163.75 1139.04 155.3C1139.04 146.85 1132.19 140 1123.74 140C1115.29 140 1108.44 146.85 1108.44 155.3C1108.44 163.75 1115.29 170.6 1123.74 170.6Z" fill="#3F3F3F"/>
<path id="Vector_17" d="M1159.34 187.9C1164.14 187.9 1168.04 184.005 1168.04 179.2C1168.04 174.395 1164.14 170.5 1159.34 170.5C1154.53 170.5 1150.64 174.395 1150.64 179.2C1150.64 184.005 1154.53 187.9 1159.34 187.9Z" fill="#3F3F3F"/>
<path id="Vector_18" d="M1153.54 184.3C1161.55 184.3 1168.04 177.808 1168.04 169.8C1168.04 161.792 1161.55 155.3 1153.54 155.3C1145.53 155.3 1139.04 161.792 1139.04 169.8C1139.04 177.808 1145.53 184.3 1153.54 184.3Z" fill="#2D2D2D"/>
<path id="Vector_19" d="M1118.84 930.5C1129.66 930.5 1138.44 921.725 1138.44 910.9C1138.44 900.075 1129.66 891.3 1118.84 891.3C1108.01 891.3 1099.24 900.075 1099.24 910.9C1099.24 921.725 1108.01 930.5 1118.84 930.5Z" fill="#2D2D2D"/>
<path id="Vector_20" d="M407.238 180.3C414.141 180.3 419.738 174.704 419.738 167.8C419.738 160.896 414.141 155.3 407.238 155.3C400.334 155.3 394.738 160.896 394.738 167.8C394.738 174.704 400.334 180.3 407.238 180.3Z" fill="#2D2D2D"/>
<path id="Vector_21" d="M605.038 1035.1C613.488 1035.1 620.338 1028.25 620.338 1019.8C620.338 1011.35 613.488 1004.5 605.038 1004.5C596.588 1004.5 589.738 1011.35 589.738 1019.8C589.738 1028.25 596.588 1035.1 605.038 1035.1Z" fill="#2D2D2D"/>
<g id="Group_27">
<g id="Group_28">
<path id="Vector_22" d="M715.438 747.3C713.338 746.4 715.738 742.7 716.838 742.2C718.138 741.6 720.738 742.4 722.138 742.8C724.338 743.5 726.238 744.7 728.438 745.3C730.838 746 733.738 746.2 736.038 745.1C744.038 741 734.538 727.2 746.238 727.2C752.638 727.2 758.038 736.7 763.338 729.6C765.238 727.1 766.038 723.9 767.038 720.9C767.838 718.3 768.538 715.6 770.338 713.5C772.438 711.1 778.838 708.7 779.538 713.9C779.738 715.8 782.838 715.8 782.538 713.9C782.038 710.3 779.438 707.9 775.738 707.7C771.338 707.4 768.138 710.7 766.338 714.3C765.038 716.8 764.438 719.6 763.538 722.3C762.938 724.2 762.138 727.5 760.438 728.7C758.638 729.9 757.238 728.6 755.738 727.7C751.838 725.1 747.138 723.1 742.438 724.8C738.138 726.4 736.438 730.1 736.638 734.5C736.638 735.8 737.038 737.4 736.938 738.7C736.238 743.3 733.138 743.5 729.938 742.8C726.738 742.1 724.038 740.1 720.738 739.5C717.238 738.8 713.738 739.7 712.138 743.2C710.838 746.2 711.638 749.2 714.638 750.4C716.438 750.9 717.238 748 715.438 747.3Z" fill="#727272"/>
</g>
</g>
<g id="Group_29">
<g id="Group_30">
<path id="Vector_23" d="M767.038 752.1C765.538 749.8 765.538 746.9 767.138 744.6C769.438 741.3 772.638 741.8 776.138 742.3C778.738 742.7 781.938 743.2 783.838 740.9C785.138 739.4 784.938 737.6 785.438 735.9C786.138 733.4 787.738 731.2 789.838 729.7C794.238 726.5 800.438 726 804.838 729.4C805.938 730.2 807.238 729.7 807.438 728.3C808.638 718.6 818.238 711.4 827.838 713.1C829.738 713.4 830.538 710.5 828.638 710.2C816.938 708.2 805.838 716.6 804.438 728.3C805.338 727.9 806.138 727.6 807.038 727.2C802.938 724 797.738 723.2 792.838 724.9C787.238 726.8 784.638 730.5 782.538 735.7C781.538 738.3 780.338 739.9 777.438 739.5C775.838 739.3 774.338 738.9 772.738 738.8C770.438 738.7 768.438 739.3 766.638 740.8C762.838 744 761.838 749.5 764.538 753.7C765.538 755.3 768.138 753.8 767.038 752.1Z" fill="#727272"/>
</g>
</g>
<g id="Group_31">
<g id="Group_32">
<path id="Vector_24" d="M817.638 204.8C815.938 203.2 816.438 202.2 819.038 201.7C820.138 200.2 821.338 199.9 822.638 200.9C824.438 201.3 825.638 202.9 826.938 204.1C828.538 205.5 829.938 207.1 831.738 208.2C834.238 209.6 837.338 210.2 839.938 208.9C843.138 207.3 843.238 204.1 844.338 201.1C847.338 193.1 857.538 192.3 862.338 199.1C862.938 199.9 864.438 200.2 864.938 199.1C866.838 194.6 869.238 189.5 873.538 186.8C877.838 184.1 885.038 184.4 886.938 190C887.538 191.8 890.438 191 889.838 189.2C887.938 183.8 882.438 181.4 876.938 182.3C869.338 183.6 865.138 191.2 862.338 197.6C863.238 197.6 864.038 197.6 864.938 197.6C861.438 192.6 855.438 189.9 849.438 192.1C846.938 193 844.638 194.8 843.138 197.1C842.338 198.3 841.838 199.6 841.338 201C841.038 201.9 841.038 203 840.538 203.8C839.238 206 835.638 206.9 833.338 205.6C828.438 202.9 823.638 194.3 816.838 197.8C813.038 199.7 812.538 205.1 816.138 207.4C817.838 208.4 819.338 205.8 817.638 204.8Z" fill="#494949"/>
</g>
</g>
<g id="Group_33">
<g id="Group_34">
<path id="Vector_25" d="M881.838 204C881.138 194 893.938 197.3 899.038 199.8C901.638 201.1 904.838 203.5 907.638 201.3C908.538 200.6 908.938 199.6 909.338 198.6C910.838 195.3 911.838 192.9 915.838 191.7C922.038 189.9 928.038 193.8 933.038 197C934.638 198 936.138 195.4 934.538 194.4C929.238 191.1 923.238 187.4 916.738 188.5C914.638 188.8 912.538 189.6 910.838 190.9C908.238 192.8 907.738 196.1 905.138 197.7C902.638 199.2 901.638 197.7 899.138 196.5C897.838 195.9 896.538 195.3 895.138 194.8C892.538 193.9 889.738 193.5 887.038 194.1C882.338 195.2 878.538 199 878.838 204C878.938 205.9 881.938 205.9 881.838 204Z" fill="#494949"/>
</g>
</g>
<g id="Group_35">
<g id="Group_36">
<path id="Vector_26" d="M1171.24 618.2C1164.64 603.7 1189.64 597.3 1191.34 612.5C1191.94 617.6 1189.14 623 1183.94 624.4C1178.14 625.9 1171.94 622 1170.34 616.4C1169.84 614.5 1166.94 615.3 1167.44 617.2C1169.44 624.4 1177.34 629.2 1184.74 627.3C1192.04 625.4 1195.64 617.3 1193.94 610.3C1192.14 602.9 1184.44 599.3 1177.34 601.2C1169.04 603.4 1165.14 612.1 1168.64 619.9C1169.44 621.5 1172.04 619.9 1171.24 618.2Z" fill="#494949"/>
</g>
</g>
<g id="Group_37">
<g id="Group_38">
<path id="Vector_27" d="M1189.84 629.7C1184.44 629.2 1182.44 622 1186.14 618.4C1189.24 615.3 1194.54 615.5 1197.84 618.1C1201.24 620.8 1204.54 628.7 1200.74 632.5C1195.74 637.5 1189.64 629.4 1187.24 625.8C1186.14 624.2 1183.54 625.7 1184.64 627.3C1188.14 632.7 1196.14 641.2 1202.84 634.6C1208.14 629.4 1204.34 618.9 1199.14 615.2C1193.84 611.4 1185.14 612.7 1182.14 618.9C1179.14 624.9 1183.54 632.1 1189.94 632.7C1191.74 632.9 1191.74 629.9 1189.84 629.7Z" fill="#494949"/>
</g>
</g>
<g id="Group_39">
<g id="Group_40">
<path id="Vector_28" d="M281.438 504C285.438 503.8 287.538 501.1 290.338 498.6C296.938 492.7 304.538 498.3 308.738 504.1C312.738 509.6 318.538 513.5 323.638 506.9C326.038 503.8 327.238 499.2 330.538 497C337.238 492.5 342.938 501.4 347.138 505.3C351.938 509.7 361.838 511.7 364.038 503.5C364.538 501.6 361.638 500.8 361.138 502.7C360.038 507 354.838 506.9 351.738 505.1C349.338 503.7 347.638 501.5 345.738 499.6C342.938 496.6 339.838 493.7 335.638 492.9C328.738 491.7 325.638 497.9 322.538 502.9C321.738 504.3 320.738 506.2 319.238 507C315.638 508.9 313.038 505.1 311.138 502.6C308.738 499.2 306.038 496.3 302.138 494.5C298.938 493 295.138 492.5 291.838 493.9C288.038 495.5 285.638 500.9 281.338 501.1C279.538 501.1 279.538 504.1 281.438 504Z" fill="#494949"/>
</g>
</g>
<g id="Group_41">
<g id="Group_42">
<path id="Vector_29" d="M351.338 483.4C355.538 488.4 363.038 495.1 369.638 489.6C371.238 488.2 372.138 486.2 373.838 484.8C376.338 482.9 379.638 482.5 382.538 483.4C388.838 485.1 392.538 491.1 395.838 496.2C396.438 497.1 397.938 497.3 398.438 496.2C402.738 486.8 414.238 484.5 423.238 488.1C425.038 488.8 425.838 485.9 424.038 485.2C413.938 481.1 400.638 484.1 395.838 494.6C396.738 494.6 397.538 494.6 398.438 494.6C393.938 487.6 388.238 479.6 378.838 479.9C375.538 480 372.538 481.4 370.338 483.8C367.738 486.8 365.538 489.2 361.238 487.9C357.938 486.9 355.538 483.8 353.338 481.2C352.238 479.8 350.138 481.9 351.338 483.4Z" fill="#494949"/>
</g>
</g>
<g id="Group_43">
<g id="Group_44">
<path id="Vector_30" d="M531.438 588C530.138 585.4 528.638 582.7 527.438 580C526.138 577.2 526.738 576.1 528.438 573.7C530.638 570.6 534.038 567.8 537.938 569.9C540.738 571.4 542.538 574.8 543.338 577.7C544.738 582.6 543.538 589.6 537.838 591.2C533.138 592.5 527.038 589.6 527.238 584.2C527.238 582.3 524.238 582.3 524.238 584.2C524.038 590.9 530.738 595.1 536.938 594.4C544.538 593.5 547.738 585.5 546.638 578.7C545.538 572.1 539.438 563.7 531.838 566.8C528.138 568.3 525.338 572.2 523.638 575.7C522.638 577.8 522.838 577.9 523.838 580C525.438 583.2 527.038 586.4 528.638 589.5C529.738 591.2 532.338 589.7 531.438 588Z" fill="#727272"/>
</g>
</g>
<g id="Group_45">
<g id="Group_46">
<path id="Vector_31" d="M542.538 607.6C538.738 603.1 532.238 594.3 537.838 588.7C541.838 584.7 549.038 586.2 552.338 590.2C555.738 594.3 556.438 602.3 551.138 605.3C546.638 607.9 540.138 605.4 539.338 600.2C539.038 598.3 536.138 599.1 536.438 601C537.638 607.8 545.938 611 551.938 608.3C559.238 604.9 559.538 594.8 555.238 588.9C551.138 583.2 542.138 581.2 536.538 585.9C528.438 592.6 535.438 603.6 540.538 609.6C541.638 611.2 543.738 609.1 542.538 607.6Z" fill="#494949"/>
</g>
</g>
<g id="Group_47">
<g id="Group_48">
<path id="Vector_32" d="M1133.84 405.2C1133.94 396.4 1146.04 399 1151.24 399.6C1155.74 400.1 1159.84 399.5 1163.84 397.3C1168.24 395 1171.84 391.4 1176.14 388.9C1178.94 387.2 1182.34 385.7 1185.64 385.7C1189.14 385.8 1191.34 387.9 1194.44 389.2C1201.64 392.1 1206.24 385.4 1210.74 381C1219.64 372.3 1232.34 375.9 1242.74 379.5C1244.54 380.1 1245.34 377.2 1243.54 376.6C1234.24 373.4 1222.44 369.9 1213.24 375.2C1208.84 377.7 1206.24 382.3 1202.24 385.2C1196.54 389.3 1191.74 382.8 1185.74 382.7C1172.84 382.5 1166.04 397.4 1153.04 396.7C1147.44 396.4 1142.04 394.3 1136.64 396.8C1133.14 398.4 1130.94 401.2 1130.84 405.1C1130.74 407.1 1133.74 407.1 1133.84 405.2Z" fill="#727272"/>
</g>
</g>
<g id="Group_49">
<g id="Group_50">
<path id="Vector_33" d="M1208.64 401.8C1215.04 392.7 1227.04 388.3 1237.84 391.4C1242.54 392.8 1246.94 396.6 1252.14 396.3C1256.44 396 1258.74 392.5 1261.64 389.8C1266.34 385.5 1272.44 382 1279.04 382.2C1283.04 382.3 1286.14 383.8 1289.24 386.4C1290.24 387.3 1291.04 388.1 1292.44 388.5C1294.44 389 1296.24 388.1 1298.04 387.3C1301.14 385.9 1304.34 384.7 1307.64 383.8C1314.44 382.1 1321.34 381.8 1328.24 382.7C1330.14 382.9 1330.14 379.9 1328.24 379.7C1321.64 378.8 1315.04 379 1308.54 380.5C1305.64 381.2 1302.74 382.1 1299.94 383.2C1297.74 384.1 1296.64 384.7 1294.14 384.7C1291.44 384.7 1291.64 384.3 1289.84 382.9C1281.34 376.4 1269.94 379.4 1262.24 385.5C1260.14 387.1 1258.44 389.3 1256.44 390.9C1251.64 394.7 1247.84 392.3 1242.94 390.1C1238.74 388.2 1234.34 387.3 1229.74 387.5C1220.24 387.9 1211.64 392.6 1206.24 400.3C1204.94 401.9 1207.54 403.4 1208.64 401.8Z" fill="#727272"/>
</g>
</g>
</g>
<g id="body">
<g id="Group 1">
<g id="leg right">
<path id="Vector_34" d="M964.9 972C966.8 984 968.7 996.1 970.5 1008.1C931 1020.9 911.6 1029 912.4 1032.4C913.4 1036.6 945 1033.5 1007.2 1023.4C1003.6 1004.4 1000.1 985.4 996.5 966.4C985.9 968.2 975.4 970.1 964.9 972Z" fill="black"/>
<path id="Vector_35" d="M879.9 570.2C879.2 583.8 878.2 603.2 877.3 626.7C876.4 651.6 875.9 664.6 876 680.6C876 687.5 876.3 715.6 879.9 751.8C882.9 782.3 887.6 827.9 904.3 884C910.9 906.2 921.1 936 937 970C944.3 971.1 952.9 971.7 962.7 971.3C981.1 970.4 996 965.9 1006.3 961.7C1003.3 951.9 999.1 938 994.7 921.3C988.8 898.7 971.8 830.6 965.2 739.1C961.9 693.1 960.7 635.7 966.5 569.7C937.7 569.8 908.8 570 879.9 570.2Z" fill="white"/>
<path id="Vector_36" opacity="0.09" d="M964 577.9C962.1 585.1 959.6 595.5 956.9 608.1C949.9 641.4 942.7 688.9 943.4 769.2C943.8 818.6 947.3 886.9 960.1 969.4C965.1 968.9 970.2 968.3 975.5 967.5C986.6 965.8 996.9 963.6 1006.3 961.1C1002.1 947.5 996.3 927.3 990.3 902.7C969 815 963 740.6 961.4 691.5C960.5 662.3 960.5 623.6 964 577.9Z" fill="#606060"/>
<g id="Group_51">
<g id="Group_52">
<path id="Vector_37" d="M964.3 572.8C954.3 674 960.5 776.7 982.6 876C988.9 904.2 996.4 932 1005.2 959.5C1005.8 961.3 1008.7 960.5 1008.1 958.7C977.3 862 961.9 760.6 962.7 659.1C962.9 630.3 964.5 601.4 967.3 572.7C967.5 570.9 964.5 570.9 964.3 572.8Z" fill="#161616"/>
</g>
</g>
<g id="Group_53">
<g id="Group_54">
<path id="Vector_38" d="M875.8 662.5C872.1 744.5 883.6 827 909.4 904.9C916.6 926.7 925 948.1 934.5 969C935.3 970.8 937.9 969.2 937.1 967.5C903.6 893 883.9 812.5 879.2 731C877.9 708.2 877.8 685.4 878.8 662.5C878.9 660.5 875.9 660.6 875.8 662.5Z" fill="#161616"/>
</g>
</g>
<g id="Group_55">
<g id="Group_56">
<path id="Vector_39" d="M935.7 969.9C939.1 973.7 946.9 972.8 951.5 972.9C958.5 973 965.6 972.3 972.5 971.3C980 970.2 987.5 968.6 994.9 966.8C998.6 965.9 1006.3 965.7 1008.2 961.6C1009 959.9 1006.4 958.3 1005.6 960.1C1004.7 962.2 999.7 962.6 997.8 963C995 963.7 992.3 964.3 989.5 965C984.2 966.2 979 967.3 973.7 968.1C968.2 969 962.7 969.6 957.2 969.8C953 970 941 971.3 937.9 967.8C936.5 966.3 934.4 968.5 935.7 969.9Z" fill="#161616"/>
</g>
</g>
</g>
<g id="leg left">
<path id="Vector_40" d="M850.4 569.6C847.5 575.9 843.6 587.9 840.8 598.5C837.3 612 836.4 620.1 834.4 631.9C830.7 653.7 828.2 657.4 822.8 681.3C817.1 706.9 814.5 726.6 812.5 742.3C810.9 754.5 808 779.4 806.7 811.6C806.1 825.5 805.8 833.7 806.1 845C806.9 880.5 812.6 908 815.1 918.8C821.8 948.5 831.6 973.9 841.4 994.5C845.9 996.8 852.7 999.7 861.3 1001.6C871.9 1003.9 885.5 1006.9 898.5 1000.3C902.1 998.5 910.3 993.5 916.5 981.7C911.7 968.6 905.8 950 901.1 927.2C889.5 870.6 893.7 825.8 896.6 797.6C902 744.3 914.4 704.3 935.7 635.3C942.9 612.1 949.3 593.3 953.7 580.8C955.2 570.9 958.7 541.2 942.8 528.8C919.5 510.4 865.2 537.7 850.4 569.6Z" fill="white"/>
<path id="Vector_41" opacity="0.08" d="M939.6 622.8C933.1 633.1 924.1 648.4 915.2 667.7C904.2 691.5 888 733.3 879.3 816.6C874.5 862.1 871.3 925.8 878.7 1002.7C881.8 1003 895 1004.1 906.3 995C912.1 990.3 915.1 984.9 916.6 981.5C911.7 968 905.4 948.2 900.6 923.7C886.4 852.3 895.3 794.9 901.9 754.9C907.3 721.5 917.8 675.4 939.6 622.8Z" fill="#606060"/>
<path id="Vector_42" d="M866.1 1001.4C869.5 1013.6 872.9 1025.9 876.3 1038.1C822.7 1054.4 796.4 1064.6 797.3 1068.6C798.3 1073.2 834.8 1069.8 906.8 1058.4C904.9 1038.8 903 1019.3 901.2 999.7C889.4 1000.2 877.7 1000.8 866.1 1001.4Z" fill="black"/>
<g id="Group_57">
<g id="Group_58">
<path id="Vector_43" d="M849.3 570.8C838.7 597.6 833.3 626 827.6 654.2C821.6 683.7 815.8 713.2 811.6 743C803.8 798.2 801.4 854.7 812.1 909.7C817.8 939.3 827.4 968.1 841.5 994.7C842.4 996.4 845 994.9 844.1 993.2C790.6 891.5 806.8 772.5 828.6 664.6C834.9 633.3 840.5 601.4 852.3 571.6C852.9 569.8 850 569 849.3 570.8Z" fill="#161616"/>
</g>
</g>
<g id="Group_59">
<g id="Group_60">
<path id="Vector_44" d="M938.3 622.6C904.8 711.9 882.4 807.9 895.4 903.6C899 930 905.3 955.9 914.5 980.9C915.2 982.7 918.1 981.9 917.4 980.1C884.1 890.2 890.9 791.6 915.9 700.5C923.1 674.4 931.7 648.7 941.2 623.3C941.9 621.5 939 620.8 938.3 622.6Z" fill="#161616"/>
</g>
</g>
<g id="Group_61">
<g id="Group_62">
<path id="Vector_45" d="M841.8 994.6C855.9 1002.4 872.1 1005.7 888.1 1003.6C901.2 1001.8 916.4 995.8 917.7 980.7C917.9 978.8 914.9 978.8 914.7 980.7C913.3 996.4 894.3 1000.6 881.4 1001.2C868.1 1001.8 855 998.5 843.4 992C841.6 991.1 840.1 993.7 841.8 994.6Z" fill="#161616"/>
</g>
</g>
</g>
<g id="torso">
<path id="Vector_46" d="M871 309C868.3 312.2 864.5 317.1 860.9 323.6C848.6 345.2 847.8 366.4 847.6 385C847.4 412.1 847.2 425.7 850.1 455.2C852.8 482.8 853.5 522.4 843.8 572.9C852.5 579.3 865.2 586.7 881.8 590.6C929.6 601.8 969.2 573.9 976.7 568.5C967.2 512.8 962 468.2 959 436.9C957.1 417.1 950.1 388.3 936.2 330.6C932 313 927.7 296.2 914.7 291.4C896.7 284.6 874.6 305.5 871 309Z" fill="#9E9E9E"/>
<path id="Vector_47" opacity="0.1" d="M914.2 292.8C915.8 299.3 918.1 309.1 920.4 321.2C923.4 336.8 927.4 360.4 930.2 395.5C933.1 431.7 936.4 499.6 937.4 587.4C944.2 585.4 952.4 582.4 961.1 577.6C966.9 574.4 971.9 571 976.1 567.8C975.4 560.1 974.1 548.4 972 534.3C969.3 516.6 966.6 504.3 965.3 498.2C962.1 482.4 958.5 458.8 958.1 426C954 408.6 950.9 394.6 948.8 385.3C943 358.9 941.3 349.2 936.9 333.2C932.5 317.1 927.9 304.3 925 296.6C921.4 295.2 917.8 294 914.2 292.8Z" fill="#606060"/>
</g>
<g id="backpack">
<path id="Vector_48" d="M870.9 318.6C871.8 320.4 873.3 321 876.6 322.6C879.4 324 882.1 325.7 884.9 326.9C893.5 330.6 903.6 347 905.2 349.6C911.3 359.5 918.4 371.1 922.5 387.9C923.6 392.3 926.1 403.7 923.2 442.2C920.1 481.7 916.1 487.2 919.2 506.9C921.5 521.2 924.4 538.3 938.5 547.6C951.6 556.2 966.7 553.2 969.8 552.6C988.8 548.9 999.6 534.2 1010.1 519.9C1026.1 498.2 1032.2 476.5 1034.8 463.9C1036 458 1035.8 440.7 1035.5 406.2C1035.1 370.6 1034.5 358.3 1025.2 347.9C1018.9 340.9 1011.2 337.6 1005.9 335.9C1006.3 333.7 1006.4 330.4 1004.6 327.6C1001.2 322.4 993.1 322.5 987.9 322.6C965.6 323.2 949 338.2 948.2 338.9C934.3 351.8 930.2 367.6 928.9 374.2C926.1 361.8 921.5 352.3 917.9 346.2C914.8 340.9 910.2 335.5 900.9 324.5C893.6 315.9 890.1 312.6 884.6 310.8C883.4 310.4 874.3 307.7 871.3 311.8C869.9 313.7 869.9 316.6 870.9 318.6Z" fill="white"/>
<path id="Vector_49" opacity="0.11" d="M870.2 314.9C870.8 313.8 877.5 316.3 878.2 316.6C888.1 320.4 896.9 328.3 908.2 346.6C914 356 921.3 369.3 927.5 386.6C931.9 382.1 935.6 378.4 938.5 375.6C938.5 375.6 949.2 365.3 966.5 355.3C968.2 354.3 970.3 353.1 971.8 354C974.9 355.7 971.6 364 972.5 371.7C973.2 377.5 976.6 385.5 989.5 394.4C989.8 396.1 989.9 398.5 988.5 400.1C985.7 403.2 978.5 400.7 974.8 399.4C968.8 397.3 957.2 391.8 943.5 375.7C942.2 380.9 940.5 388.3 939.2 397.4C938 405.3 934.7 431.6 940.2 465.4C942.4 478.8 946.5 496.7 954.9 517.1C958.6 518.7 963.3 520.2 968.9 521.1C980.6 522.9 990.3 520.6 995.9 518.8C992.6 520.4 988.1 523.1 984.2 527.8C979.5 533.5 979.4 537.8 975.5 543.1C972.9 546.7 968.2 551.2 959.5 554.4C956.8 554.1 952.7 553.4 948.2 551.4C934.5 545.3 928.3 532.4 925.5 526.4C921.8 518.3 916.1 501.9 921.5 446.4C924.6 414.7 928 404.8 922.8 386.7C918.8 372.8 911.9 361.3 909.5 357.4C905.2 350.4 897.5 337.9 883.5 326.4C876.9 320.8 869.6 316.2 870.2 314.9Z" fill="#606060"/>
<path id="Vector_50" d="M981.7 337.3C979.9 339.7 977.6 343.2 975.8 347.8C974.8 350.5 972.4 356.8 973 364.8C974.1 380.7 985.5 390.4 987.6 392.1C989 393.2 990.2 394.1 991 394.6C989.8 398.7 988.4 404.8 987.9 412.3C987.1 422.9 986.3 434.8 992.5 438.3C996.5 440.5 1002.5 439 1005.8 435.8C1006.6 435 1008.9 432.5 1009.5 421.2C1010.2 407.8 1007.4 402.2 1011.4 398.3C1013.1 396.5 1016 395.4 1018.5 394.3C1021.3 393.1 1023.8 392.5 1025.6 392.1C1024.5 400.3 1023.7 407.6 1023.1 413.5C1022.4 420.8 1022.1 424.5 1024.6 426.8C1026.9 428.9 1030.7 429.3 1033.6 428C1037.4 426.3 1038.6 421.6 1040.7 412.2C1042.4 404.8 1043.8 398.6 1042.9 390.2C1042.4 385.9 1041.5 382.4 1040.7 380C1040.5 378.3 1040 375.8 1039.2 372.9C1037.5 367.1 1035.9 365.4 1034.9 361.7C1033.4 356.4 1035.1 353.8 1035.5 347.8C1035.9 343.1 1035.5 336.4 1032.1 328C1030.8 328.1 1028.1 328.3 1025.3 330.2C1021.9 332.4 1020.5 335.6 1020 336.7C1017.4 336.1 1012.7 335.5 1007.3 337C998 339.5 993.1 346.4 991.8 348.5C994.4 342.8 992.2 337.2 988.7 335.8C985.7 334.5 982.1 337.1 981.7 337.3Z" fill="black"/>
<g id="Group_63">
<g id="Group_64">
<path id="Vector_51" d="M993 368.3C994 366.4 999 362.2 1000.7 365.7C1001.5 367.4 1004.1 365.9 1003.3 364.2C1002.2 361.9 999.5 361.2 997.1 361.7C994.2 362.2 991.8 364.2 990.4 366.8C989.5 368.5 992.1 370 993 368.3Z" fill="white"/>
</g>
</g>
<g id="Group_65">
<g id="Group_66">
<path id="Vector_52" d="M1022.3 360.6C1022.9 359.3 1023.5 357.8 1024.5 356.8C1025.5 355.8 1028.5 354.7 1028.6 357C1028.7 358.9 1031.7 358.9 1031.6 357C1031.4 354.1 1028.9 352.2 1026 352.6C1022.7 353.2 1021 356.2 1019.7 359C1018.9 360.8 1021.5 362.4 1022.3 360.6Z" fill="white"/>
</g>
</g>
<g id="Group_67">
<g id="Group_68">
<path id="Vector_53" d="M1023.1 370.1C1023.1 370.2 1023.1 370.3 1023.1 370.4C1022.9 370.6 1022.7 370.8 1022.6 370.9C1022.1 371.2 1021.3 370.9 1021.4 370.3C1021.4 370.3 1021.4 370 1021.5 370.1L1021.2 370.4C1021.9 370.4 1022.6 370.4 1023.3 370.4C1023.2 370.3 1023.2 370.3 1023.1 370.2C1023.2 370.3 1023.2 370.3 1023.2 370.3C1023.1 370.2 1023.2 370.2 1023.2 370.4C1023.3 371 1023 371.4 1022.2 371.7C1021.9 371.6 1021.7 371.6 1021.4 371.5C1021 371.3 1021.1 370.7 1021.2 370.4C1021.3 370.3 1021.2 370.3 1021.1 370.5C1021.2 370.4 1021.2 370.4 1021.1 370.5C1020.4 371 1020.1 371.8 1020.6 372.6C1021 373.2 1022 373.6 1022.7 373.1C1023.4 372.6 1024.1 371.9 1024.2 370.9C1024.2 369.8 1023.4 368.8 1022.3 368.8C1021.2 368.8 1020.4 369.5 1020.3 370.6C1020.2 371.4 1020.7 372.1 1021.2 372.6C1021.8 373.2 1022.7 373.1 1023.3 372.6C1024.6 371.6 1024.9 369.5 1023.4 368.5C1022.7 368.1 1021.8 368 1021.1 368.4C1020.2 368.9 1020.1 370.1 1020.3 371C1020.4 371.8 1021.4 372.2 1022.1 372C1022.9 371.7 1023.2 370.9 1023.1 370.1Z" fill="white"/>
</g>
</g>
<g id="Group_69">
<g id="Group_70">
<path id="Vector_54" d="M1007.1 373.2C1004.2 374.9 1000.3 374.1 998.4 371.3C997.3 369.7 994.7 371.2 995.8 372.8C998.7 376.9 1004.2 378.3 1008.7 375.8C1010.3 374.8 1008.8 372.2 1007.1 373.2Z" fill="white"/>
</g>
</g>
<g id="Group_71">
<g id="Group_72">
<path id="Vector_55" d="M1004.9 379.7C1002.7 381.4 1000.8 383.6 999.5 386.1C998.6 387.8 1001.2 389.3 1002.1 387.6C1003.3 385.3 1005 383.4 1007.1 381.8C1007.7 381.3 1007.6 380.2 1007.1 379.7C1006.4 379.1 1005.5 379.2 1004.9 379.7Z" fill="white"/>
</g>
</g>
<g id="Group_73">
<g id="Group_74">
<path id="Vector_56" d="M1029.2 368.7C1031.2 366.4 1032.7 363.8 1033.7 360.9C1034.3 359.1 1031.4 358.3 1030.8 360.1C1030 362.5 1028.7 364.7 1027.1 366.6C1025.9 368.1 1028 370.2 1029.2 368.7Z" fill="white"/>
</g>
</g>
<g id="Group_75">
<g id="Group_76">
<path id="Vector_57" d="M1029.4 372.5C1031.8 372 1034.6 371.4 1036.5 373.4C1037.8 374.8 1039.9 372.7 1038.6 371.3C1035.9 368.4 1032 368.9 1028.5 369.7C1026.7 370 1027.5 372.9 1029.4 372.5Z" fill="white"/>
</g>
</g>
<g id="Group_77">
<g id="Group_78">
<path id="Vector_58" d="M869.7 316.3C874.3 309.1 885.2 313.4 890.7 317C897.3 321.2 902.3 327.5 906.8 333.8C915.9 346.5 924 360.3 927 375.8C927.4 377.7 930.3 376.9 929.9 375C926.4 356.5 915.6 338.7 903.4 324.5C896.3 316.3 876.2 300.8 867.1 314.9C866.1 316.4 868.7 318 869.7 316.3Z" fill="#161616"/>
</g>
</g>
<g id="Group_79">
<g id="Group_80">
<path id="Vector_59" d="M875.9 323.1C899.9 336.6 913.4 361.9 920.2 387.7C920.7 389.6 923.6 388.8 923.1 386.9C916.1 360.4 902 334.3 877.4 320.5C875.7 319.5 874.2 322.1 875.9 323.1Z" fill="#161616"/>
</g>
</g>
<g id="Group_81">
<g id="Group_82">
<path id="Vector_60" d="M929.9 374.5C932.4 356.8 943.7 342 959.2 333.5C967.2 329.1 976.1 326.4 985.2 325.1C989.5 324.5 994.5 323.9 998.7 325.5C1003.3 327.2 1007.7 334.5 1001.9 337.8C1000.2 338.7 1001.7 341.3 1003.4 340.4C1009.8 336.8 1008.2 327.6 1002.6 324.1C993.9 318.6 979.5 322.5 970.6 325.5C948.6 332.6 930.4 350.4 927.1 373.9C926.7 375.6 929.6 376.4 929.9 374.5Z" fill="#161616"/>
</g>
</g>
<g id="Group_83">
<g id="Group_84">
<path id="Vector_61" d="M936.6 379C941.5 373.3 947.7 368.5 953.7 364C959.5 359.6 965.7 356 972.9 354.4C974.8 354 974 351.1 972.1 351.5C964.7 353.2 958.2 356.9 952.2 361.4C946 366.1 939.6 371 934.5 376.9C933.2 378.3 935.3 380.5 936.6 379Z" fill="#161616"/>
</g>
</g>
<g id="Group_85">
<g id="Group_86">
<path id="Vector_62" d="M973.3 354.7C975.4 349.9 978.1 345.3 981.4 341.2C982 340.5 982.7 339.3 983.5 338.8C984.2 337.5 985.1 337.4 986.4 338.6C988 338.6 988.7 339.2 988.7 340.6C989.8 342.7 989.9 346.3 990.3 348.7C990.7 350.6 993.6 349.8 993.2 347.9C992.4 344.1 991.4 330.5 984.2 334.2C981.4 335.6 979.3 339.1 977.5 341.5C974.8 345.2 972.6 349.1 970.7 353.2C969.9 354.9 972.5 356.5 973.3 354.7Z" fill="#161616"/>
</g>
</g>
<g id="Group_87">
<g id="Group_88">
<path id="Vector_63" d="M992.6 349.6C997.7 343 1008.1 333.9 1017 338.8C1018.7 339.7 1020.2 337.1 1018.5 336.2C1008.2 330.7 996.6 339.7 990.4 347.5C989.3 349 991.4 351.1 992.6 349.6Z" fill="#161616"/>
</g>
</g>
<g id="Group_89">
<g id="Group_90">
<path id="Vector_64" d="M1019.9 338.3C1021.3 336.1 1027.8 328.2 1030.6 330.3C1032.1 331.4 1032.4 335.3 1032.8 337.1C1033.4 339.9 1033.6 342.7 1033.7 345.6C1033.8 347.5 1036.8 347.5 1036.7 345.6C1036.6 341.6 1036.1 337.7 1035.1 333.8C1034.5 331.6 1034 327.4 1031.4 326.7C1029 326.1 1025.7 328.4 1023.9 329.7C1021.2 331.6 1019.1 334 1017.4 336.8C1016.3 338.4 1018.9 339.9 1019.9 338.3Z" fill="#161616"/>
</g>
</g>
<g id="Group_91">
<g id="Group_92">
<path id="Vector_65" d="M940.5 374.1C947.4 380.8 954.7 387 962.5 392.6C970.2 398.1 977.7 402 987.4 401.5C989.3 401.4 989.3 398.4 987.4 398.5C977.5 399 970.2 394.6 962.5 389C955.4 383.8 948.8 378.1 942.5 372C941.2 370.7 939.1 372.8 940.5 374.1Z" fill="#161616"/>
</g>
</g>
<g id="Group_93">
<g id="Group_94">
<path id="Vector_66" d="M920.3 384.4C931.2 432.8 902.8 485.7 926.3 532C930.7 540.7 937.4 548.6 946.6 552.5C955.6 556.3 966 556 975.3 553C995.9 546.4 1009.2 527.3 1019.4 509.3C1025.9 498 1031.3 485.9 1034.5 473.2C1036.1 466.9 1037.1 460.3 1037.4 453.8C1037.7 446.3 1036.7 438.8 1037 431.3C1037.1 429.4 1034.1 429.4 1034 431.3C1033.6 443.5 1035.2 455.1 1032.8 467.2C1030.7 478 1026.8 488.5 1021.9 498.3C1012.8 516.7 1000.5 537.4 981.6 547.1C971.8 552.1 959.7 554 949.2 550.1C938.9 546.3 932.1 537.2 927.7 527.5C918.3 506.4 919.4 482.4 921.9 460C924.7 434.6 929.1 408.9 923.4 383.5C922.7 381.8 919.8 382.5 920.3 384.4Z" fill="#161616"/>
</g>
</g>
<g id="Group_95">
<g id="Group_96">
<path id="Vector_67" d="M964.8 484.5C959.2 494.3 955.5 504.9 953.9 516.1C953.6 518 956.5 518.8 956.8 516.9C958.4 505.9 961.9 495.6 967.4 486C968.4 484.4 965.8 482.9 964.8 484.5Z" fill="#161616"/>
</g>
</g>
<g id="Group_97">
<g id="Group_98">
<path id="Vector_68" d="M966.7 485.6C981.5 484.3 997.1 481.5 1011.9 483.1C1013.8 483.3 1013.8 480.3 1011.9 480.1C997.1 478.4 981.5 481.3 966.7 482.6C964.8 482.8 964.8 485.8 966.7 485.6Z" fill="#161616"/>
</g>
</g>
<g id="Group_99">
<g id="Group_100">
<path id="Vector_69" d="M955.4 518.8C962.7 523.1 971.2 522.7 979.4 522.5C988 522.2 996.6 521.2 1004.1 516.7C1005.8 515.7 1004.2 513.1 1002.6 514.1C995.5 518.4 987.5 519.2 979.4 519.5C971.8 519.8 963.8 520.3 956.9 516.3C955.3 515.3 953.8 517.9 955.4 518.8Z" fill="#161616"/>
</g>
</g>
<g id="Group_101">
<g id="Group_102">
<path id="Vector_70" d="M1010.5 482.4C1008.6 493.4 1005.7 504 1001.8 514.4C1001.1 516.2 1004 517 1004.7 515.2C1008.7 504.8 1011.6 494.1 1013.4 483.2C1013.7 481.3 1010.8 480.5 1010.5 482.4Z" fill="#161616"/>
</g>
</g>
<g id="Group_103">
<g id="Group_104">
<path id="Vector_71" d="M964 489.7C968.9 500.5 982.8 503.2 993.5 503.3C995.4 503.3 995.4 500.3 993.5 500.3C983.9 500.1 971 497.9 966.6 488.1C965.8 486.4 963.2 488 964 489.7Z" fill="#161616"/>
</g>
</g>
<g id="Group_105">
<g id="Group_106">
<path id="Vector_72" d="M985.6 499.4C985.3 501.9 985 504.4 984.7 506.8C984.5 508.7 987.5 508.7 987.7 506.8C988 504.3 988.3 501.8 988.6 499.4C988.8 497.5 985.8 497.5 985.6 499.4Z" fill="#161616"/>
</g>
</g>
<g id="Group_107">
<g id="Group_108">
<path id="Vector_73" d="M991.3 499.4C991 501.9 990.7 504.4 990.5 506.9C990.3 508.8 993.3 508.8 993.5 506.9C993.8 504.4 994.1 501.9 994.3 499.4C994.5 497.5 991.5 497.5 991.3 499.4Z" fill="#161616"/>
</g>
</g>
<g id="Group_109">
<g id="Group_110">
<path id="Vector_74" d="M993.9 503.6C1001 502 1006.9 497.6 1010.6 491.4C1011.6 489.7 1009 488.2 1008 489.9C1004.6 495.5 999.4 499.2 993.1 500.7C991.2 501.2 992 504.1 993.9 503.6Z" fill="#161616"/>
</g>
</g>
<g id="Group_111">
<g id="Group_112">
<path id="Vector_75" d="M972 349.3C969 367 972.3 388.1 990.4 396.2C992.1 397 993.7 394.4 991.9 393.6C975 386 972.1 366.5 974.9 350.1C975.2 348.2 972.3 347.4 972 349.3Z" fill="#161616"/>
</g>
</g>
<g id="Group_113">
<g id="Group_114">
<path id="Vector_76" d="M1033.5 344.5C1033.7 350.2 1033.6 356 1034.4 361.6C1035.2 367.7 1040.7 374.5 1037.8 380.6C1037 382.3 1039.6 383.9 1040.4 382.1C1043 376.6 1040.7 372 1038.8 366.6C1036.3 359.7 1036.9 351.7 1036.6 344.4C1036.4 342.5 1033.4 342.5 1033.5 344.5Z" fill="#161616"/>
</g>
</g>
<g id="Group_115">
<g id="Group_116">
<path id="Vector_77" d="M998.6 394.1C1003 391.8 1008 394.2 1009 399C1009.1 399.5 1009.8 399.3 1009.7 398.8C1008.5 393.5 1003 390.9 998.2 393.4C997.8 393.7 998.2 394.4 998.6 394.1Z" fill="white"/>
</g>
</g>
<g id="Group_117">
<g id="Group_118">
<path id="Vector_78" d="M1006.2 399.2C1006.9 400 1007.4 400.9 1007.7 401.9C1007.9 402.4 1008.6 402.2 1008.4 401.7C1008 400.6 1007.4 399.6 1006.7 398.7C1006.4 398.3 1005.8 398.9 1006.2 399.2Z" fill="white"/>
</g>
</g>
<g id="Group_119">
<g id="Group_120">
<path id="Vector_79" d="M1026.3 392.2C1027.2 388.1 1029.8 384.7 1033.6 382.8C1034 382.6 1033.7 381.9 1033.2 382.2C1029.2 384.1 1026.5 387.7 1025.6 392C1025.5 392.5 1026.2 392.7 1026.3 392.2Z" fill="white"/>
</g>
</g>
</g>
</g>
<g id="head">
<path id="Vector_80" d="M850.2 180.2C843.3 183.7 837.5 190.3 834.9 193.2C828.5 200.5 825.2 207.3 821.6 214.9C818.6 221.1 815.1 229.9 812.3 240.9C816.2 241.6 820.1 242.2 824 242.9C823.8 246.7 823.8 252.3 825.3 258.9C826.7 264.9 829 274.5 837 281.2C848 290.6 862.6 288.3 865.3 287.9C865.5 292.6 866.5 299.3 870.3 306.2C871.3 307.9 872.3 309.5 873.3 310.9C878.8 309.3 887.3 306 895.6 299.2C916.8 282.1 919.7 256.6 920.6 249.2C921.9 237.8 924.4 216.3 910.3 198.5C895.6 180.1 867.7 171.4 850.2 180.2Z" fill="white"/>
<path id="Vector_81" d="M829.7 201C832.5 196.8 837.9 190.6 844 186.3C853.8 179.4 858.2 182.3 863.2 176.2C866.8 171.8 869.1 164.6 866.4 161.2C862.1 155.8 846.8 162.3 844.8 163.2C840.4 165.1 825.9 171.2 820.1 186.6C815.3 199.5 818.5 213.6 820.7 213.9C821.3 214 821.7 213 824.9 208.1C826.4 205.6 828.1 203.3 829.7 201Z" fill="#37373A"/>
<path id="Vector_82" d="M851.5 170.9C850.7 173.5 849.5 178.7 853.5 188.9C860.6 207.2 877.2 223.6 885.5 220.6C887.3 219.9 889.2 218.1 892.8 217.9C893.7 217.9 897.3 217.7 900.1 219.9C904.5 223.4 904.7 231 901.8 235.9C901.3 236.8 898.6 240.9 894.5 241.2C890.9 241.5 889.7 238.7 886.8 238.5C879.7 238.1 873.6 253.7 872.8 255.8C871.2 259.8 867.3 270.2 870.1 283.5C870.7 286.4 872.1 292.5 876.4 298.8C885.7 312.3 901.3 315.6 907.1 316.8C912.8 318 934.5 322.5 951.4 308.5C954.1 306.3 963 298.7 965.4 285.8C969.5 264 951.2 247.7 950.1 246.8C949.3 235.5 946.6 217.5 937.1 197.8C931.1 185.3 925.5 173.8 912.8 165.1C896.1 153.8 871.8 150.6 859.1 160.4C857.8 161.6 853.5 165 851.5 170.9Z" fill="#37373A"/>
<path id="Vector_83" d="M832.5 278.2C831 279.7 826.6 284.3 825.8 291.5C824.7 301.5 831.4 308.4 832.8 309.8C840.1 317.3 852.3 320.3 861.1 315.8C861.8 315.5 869.5 311.4 869.8 305.5C869.9 302.9 868.5 301.6 866.5 295.8C865.2 292 864.4 288.9 863.8 286.8C861.1 287.7 856.5 288.9 850.8 288.1C840.6 286.8 834.3 280.2 832.5 278.2Z" fill="#37373A"/>
<path id="Vector_84" opacity="0.12" d="M852.5 179.7C852.6 182.8 853 187.4 855.1 192.3C856.5 195.6 857.9 197.6 859 199.2C863.2 205.6 864.6 211.6 866.8 218.3C870.3 228.7 869.7 237.4 869 248.2C868.4 257.2 866.4 270.9 859.9 286.8C862.6 287.6 866.5 289.2 870.7 292C878.4 297.2 881.9 303.4 884.1 306.3C888.6 312.2 898.6 318.4 922.7 318C920.3 315.6 916.9 312 913.2 307.6C904.5 297.4 896.9 288.5 892.4 277.7C889.8 271.5 885.8 258.8 888.9 240.4C891.7 241.8 895 241.7 897.6 240C900.3 238.2 902 234.6 901.1 231.3C900 227.5 895.4 224.9 890.7 226.1C889.7 223.6 888.1 220 885.5 216.1C881.4 210 877.1 206.2 875.5 204.8C870.4 200.4 863 192.9 852.5 179.7Z" fill="#606060"/>
<path id="Vector_85" opacity="0.14" d="M813.4 239.1C813.5 237.5 818.6 236.2 822.9 236.5C826.7 236.8 831.2 238.5 831.1 240C831 241.4 826.8 242.5 823.7 242.6C818.9 242.8 813.4 240.7 813.4 239.1Z" fill="#606060"/>
<g id="Group_121">
<g id="Group_122">
<path id="Vector_86" d="M825.8 201.9C820.1 214.4 815 227.1 810.6 240.1C810.3 240.9 810.9 241.7 811.6 241.9C815.5 243.4 819.4 244.1 823.5 244C825.4 244 825.4 241 823.5 241C819.6 241 816 240.3 812.4 239C812.7 239.6 813.1 240.2 813.4 240.8C817.7 228 822.6 215.5 828.3 203.3C829.2 201.7 826.6 200.1 825.8 201.9Z" fill="#161616"/>
</g>
</g>
<g id="Group_123">
<g id="Group_124">
<path id="Vector_87" d="M823.1 244.6C823.9 257.5 825.1 271.8 834.7 281.5C843.9 290.9 857.2 290.1 869.3 288.7C871.2 288.5 871.2 285.5 869.3 285.7C858.1 287 845.4 288.1 836.8 279.4C827.8 270.3 826.9 256.7 826.1 244.6C826 242.7 823 242.7 823.1 244.6Z" fill="#161616"/>
</g>
</g>
<g id="Group_125">
<g id="Group_126">
<path id="Vector_88" d="M863.4 289C864.7 296 867.1 302.7 870.5 308.9C871.4 310.6 874 309.1 873.1 307.4C869.8 301.3 867.6 295 866.3 288.2C866 286.3 863.1 287.1 863.4 289Z" fill="#161616"/>
</g>
</g>
<g id="Group_127">
<g id="Group_128">
<path id="Vector_89" d="M825.1 259.9C830 264.2 837.3 262.2 839.2 255.9C839.8 254 836.9 253.3 836.3 255.1C835.1 259.1 830.4 260.6 827.3 257.7C825.8 256.5 823.7 258.6 825.1 259.9Z" fill="#161616"/>
</g>
</g>
<g id="Group_129">
<g id="Group_130">
<path id="Vector_90" d="M834.3 255.8C835.9 256.2 837.1 257.1 838.1 258.3C838.6 258.9 839.7 258.8 840.2 258.3C840.8 257.7 840.7 256.8 840.2 256.2C838.9 254.6 837.1 253.4 835.1 252.9C833.3 252.4 832.5 255.3 834.3 255.8Z" fill="#161616"/>
</g>
</g>
<g id="Group_131">
<g id="Group_132">
<path id="Vector_91" d="M838.8 218.4C839.6 214.2 844.8 215 847.6 216.5C850 217.8 851.7 219.9 852.7 222.4C853.4 224.2 856.3 223.4 855.6 221.6C854 217.3 850.7 213.9 846.1 212.7C841.9 211.6 836.9 212.9 836 217.6C835.6 219.5 838.5 220.3 838.8 218.4Z" fill="#161616"/>
</g>
</g>
<g id="Group_133">
<g id="Group_134">
<path id="Vector_92" d="M838.7 200.7C843.2 193.2 852 199 853.8 205.3C854.3 207.2 857.2 206.4 856.7 204.5C855.4 199.9 852.2 195.6 847.3 194.4C842.9 193.4 838.4 195.3 836.1 199.1C835.1 200.9 837.7 202.4 838.7 200.7Z" fill="#161616"/>
</g>
</g>
<g id="Group_135">
<g id="Group_136">
<path id="Vector_93" d="M841.7 235.4C843.6 235.4 843.6 232.4 841.7 232.4C839.8 232.4 839.7 235.4 841.7 235.4Z" fill="#161616"/>
</g>
</g>
<g id="Group_137">
<g id="Group_138">
<path id="Vector_94" d="M847.4 230.9C847.5 230.9 847.7 230.9 847.8 230.9C848.6 230.9 849.3 230.2 849.3 229.4C849.3 228.6 848.6 227.9 847.8 227.9C847.7 227.9 847.5 227.9 847.4 227.9C846.6 227.9 845.9 228.6 845.9 229.4C845.9 230.3 846.6 230.9 847.4 230.9Z" fill="#161616"/>
</g>
</g>
<g id="Group_139">
<g id="Group_140">
<path id="Vector_95" d="M847.5 236C847.5 236.1 847.5 236.2 847.5 236.3C847.5 238.2 850.5 238.2 850.5 236.3C850.5 236.2 850.5 236.1 850.5 236C850.5 234.1 847.5 234.1 847.5 236C847.5 236.1 847.5 236.2 847.5 236.3C847.5 238.2 850.5 238.2 850.5 236.3C850.5 236.2 850.5 236.1 850.5 236C850.5 234.1 847.5 234.1 847.5 236Z" fill="#161616"/>
</g>
</g>
<g id="Group_141">
<g id="Group_142">
<path id="Vector_96" d="M891.1 220.7C893.8 216.8 898.4 219.3 900 222.5C901.3 225 901.3 228 901.2 230.7C900.8 237.5 895.1 242.3 888.5 238.1C886.9 237 885.4 239.6 887 240.7C890.9 243.3 895.9 243.6 899.8 240.6C903.8 237.5 904.5 232.4 904.2 227.6C903.9 223 902.1 217.9 897.3 216.2C893.9 215 890.5 216.3 888.5 219.2C887.5 220.7 890.1 222.2 891.1 220.7Z" fill="#161616"/>
</g>
</g>
</g>
</g>
<g id="binocular-hand">
<g id="binocular">
<path id="Vector_97" d="M620.139 165.74C618.039 165.776 615.941 165.912 613.942 165.947C610.656 172.604 608.859 178.636 607.835 183.054C604.858 196.008 605.842 206.692 606.531 211.881C606.991 215.374 607.641 218.263 608.176 220.254C609.975 220.223 611.775 220.192 613.575 220.161C614.316 222.549 615.057 224.936 615.798 227.324C632.694 226.933 646.592 226.694 656.292 226.627C715.092 226.115 756.126 227.708 765.633 228.045C777.543 228.54 787.254 229.073 793.26 229.37C793.396 225.667 794.374 224.35 795.267 223.934C796.854 223.207 798.283 224.882 800.376 224.446C802.569 224.008 803.929 221.685 804.793 219.57C806.608 220.438 809.928 221.581 813.817 220.914C814.716 220.799 815.51 220.485 816.207 220.273C817.848 216.844 819.489 213.416 821.13 209.987C818.717 209.228 815.306 208.587 811.206 208.658C808.906 208.697 806.912 209.032 805.217 209.361C805.009 208.864 803.332 204.392 799.115 203.465C797.81 203.187 796.712 203.306 795.815 203.522C795.197 202.432 794.578 201.343 793.959 200.253C791.552 199.895 787.843 199.358 783.429 198.634C747.623 192.75 722.591 185.279 703.495 179.907C685.203 174.721 658.578 167.679 624.44 159.965C623.073 161.889 621.606 163.815 620.139 165.74Z" fill="white"/>
<path id="Vector_98" opacity="0.07" d="M606.709 204.777C607.605 204.562 608.645 206.844 609.739 206.525C611.532 206.094 611.024 199.802 611.343 195.096C611.565 190.591 612.753 184.07 617.017 176.095C619.937 177.245 624.369 179.069 629.708 181.278C648.948 189.248 662.256 195.42 666.287 197.15C692.894 208.994 721.985 213.994 729.308 215.268C745.96 218.182 769.005 220.586 796.58 218.911C795.437 222.231 794.294 225.551 793.151 228.871C788.55 228.851 781.851 228.966 773.649 228.907C738.442 228.813 713.827 228.137 699.719 227.779C679.808 227.322 651.298 227.013 615.305 227.733C614.859 225.04 614.413 222.347 613.966 219.654C611.673 220.094 609.381 220.533 607.088 220.973C605.373 208.501 605.713 204.994 606.709 204.777Z" fill="#606060"/>
<g id="Group_143">
<g id="Group_144">
<path id="Vector_99" d="M622.142 160.105C609.976 179.617 606.89 203.674 613.669 225.66C614.202 227.551 617.088 226.702 616.555 224.811C609.988 203.52 612.991 180.465 624.768 161.56C625.838 159.841 623.213 158.386 622.142 160.105Z" fill="#161616"/>
</g>
</g>
<g id="Group_145">
<g id="Group_146">
<path id="Vector_100" d="M624.792 162.96C681.328 176.188 737.764 189.419 794.298 202.548C796.207 203.015 796.957 200.102 795.048 199.634C738.512 186.406 682.076 173.175 625.542 160.046C623.733 159.577 622.983 162.491 624.792 162.96Z" fill="#161616"/>
</g>
</g>
<g id="Group_147">
<g id="Group_148">
<path id="Vector_101" d="M615.826 228.924C674.509 227.413 733.224 227.803 791.87 229.994C793.772 230.061 793.72 227.061 791.819 226.994C733.172 224.803 674.457 224.414 615.774 225.924C613.875 225.957 613.926 228.956 615.826 228.924Z" fill="#161616"/>
</g>
</g>
<g id="Group_149">
<g id="Group_150">
<path id="Vector_102" d="M793.38 201.463C797.532 210.293 796.806 220.407 791.446 228.601C790.374 230.219 793 231.674 794.072 230.056C800.016 220.952 800.623 209.74 795.953 199.919C795.124 198.233 792.55 199.777 793.38 201.463Z" fill="#161616"/>
</g>
</g>
<g id="Group_151">
<g id="Group_152">
<path id="Vector_103" d="M796.446 205.311C797.56 206.092 798.355 205.778 799.66 206.056C802.171 206.713 803.211 208.995 803.752 211.386C804.628 215.772 803.688 225.089 797.144 222.602C795.332 221.933 794.582 224.846 796.394 225.515C803.038 228.001 807.218 221.028 807.119 215.229C807.064 212.029 806.602 208.437 804.755 205.768C804.14 204.879 803.325 203.993 802.316 203.51C801.006 202.932 799.213 203.363 798.1 202.582C796.283 201.613 794.828 204.239 796.446 205.311Z" fill="#161616"/>
</g>
</g>
<g id="Group_153">
<g id="Group_154">
<path id="Vector_104" d="M805.34 210.659C810.434 210.271 815.535 210.283 820.546 210.897C822.449 211.064 822.398 208.065 820.494 207.898C815.385 207.385 810.382 207.272 805.288 207.659C803.392 207.892 803.443 210.892 805.34 210.659Z" fill="#161616"/>
</g>
</g>
<g id="Group_155">
<g id="Group_156">
<path id="Vector_105" d="M805.143 222.453C809.257 223.272 813.363 223.582 817.454 223.004C819.349 222.717 819.284 218.907 817.388 219.194C813.496 219.642 809.694 219.58 805.879 218.757C803.973 218.408 803.234 221.978 805.143 222.453Z" fill="#161616"/>
</g>
</g>
<g id="Group_157">
<g id="Group_158">
<path id="Vector_106" d="M620.526 164.952C610.729 159.424 608.336 177.269 607.132 182.885C604.355 195.853 603.185 209.201 607.106 222.054C607.317 222.661 607.926 223.159 608.526 223.149C609.825 223.126 611.225 223.102 612.525 223.08C614.425 223.047 614.372 219.996 612.472 220.029C611.173 220.051 609.773 220.075 608.473 220.097C608.98 220.496 609.485 220.792 609.892 221.192C607.131 211.88 606.968 202.421 608.304 192.835C608.93 188.551 609.756 184.264 610.784 180.075C611.437 177.317 613.414 164.362 618.971 167.624C620.789 168.61 622.243 165.94 620.526 164.952Z" fill="#161616"/>
</g>
</g>
</g>
<g id="hand">
<path id="Vector_107" d="M728.979 184.569C727.142 182.401 724.147 182.752 723.747 182.759C720.451 183.016 717.303 186.071 713.93 193.43C707.37 207.445 707.309 221.348 707.347 223.547C707.412 233.148 708.581 248.73 715.7 267.21C716.434 274.999 717.921 285.875 721.04 298.523C726.531 321.232 732.344 345.135 751.308 366.112C758.446 374.09 772.514 389.55 796.609 394.836C821.808 400.403 842.052 391.154 847.012 388.768C851.375 386.592 863.566 380.182 873.739 366.904C879.902 358.897 887.053 350.173 885.671 339.595C885.092 335.004 883.025 331.139 879.919 324.992C876.812 318.844 875.159 315.772 871.939 314.628C867.511 313.004 862.863 316.084 857.715 319.173C849.003 324.324 848.285 329.137 838.873 334.3C836.396 335.643 833.912 336.586 828.94 338.271C821.086 341.007 813.332 343.741 806.141 344.365C790.463 345.735 777.71 336.953 774.065 334.415C760.604 325.146 755.186 312.537 751.644 304.297C743.725 285.83 744.03 268.723 745.158 258.702C749.843 257.821 752.71 255.871 754.091 254.747C759.32 250.557 760.521 244.835 762.37 236.002C763.575 230.481 764.125 227.571 762.706 226.495C759.768 224.345 750.994 231.697 749.023 233.432C749.306 226.626 750.211 221.109 751.144 217.193C752.354 211.971 753.008 209.259 754.771 207.129C758.2 202.969 762.307 203.298 763.639 199.375C764.403 197.261 764.253 194.364 762.524 192.693C760.49 190.728 756.192 190.902 752.543 193.865C751.298 191.286 748.871 189.728 746.27 189.672C743.668 189.617 741.996 191.246 741.503 191.655C741.757 188.95 740.514 186.471 738.497 185.506C735.773 184.152 731.501 185.826 729.972 189.953C730.063 189.451 730.715 186.64 728.979 184.569Z" fill="white"/>
<path id="Vector_108" opacity="0.12" d="M723.747 182.759C721.42 187 718.527 193.25 716.667 201.384C712.57 219.057 716.423 233.693 718.145 240.764C736.604 313.757 729.136 315.686 741.431 332.677C745.937 338.8 776.848 379.874 821.747 373.6C859.362 368.352 878.769 333.713 881.289 329.069C882.858 333.042 884.775 339.81 883.714 347.93C882.119 359.859 874.849 367.485 872.198 370.332C869.643 372.976 866.483 375.331 860.062 379.942C854.333 384.141 848.696 387.839 846.219 389.181C834.436 396.085 816.066 398.002 803.239 396.522C768.365 392.522 746.9 359.887 737.965 346.339C717.529 315.386 714.984 283.725 714.912 267.924C712.902 261.557 710.891 255.091 708.881 248.725C707.41 238.849 707.169 230.652 707.271 224.949C707.525 210.642 707.741 199.937 714.883 190.713C718.014 186.658 721.472 184.198 723.747 182.759Z" fill="#606060"/>
<g id="Group_159">
<g id="Group_160">
<path id="Vector_109" d="M862.536 378.399C878.204 370.628 888.532 354.748 885.626 336.995C883.941 326.223 874.922 307.775 861.137 314.614C854.99 317.72 849.985 323.307 844.353 327.304C836.547 332.84 827.521 337.196 818.472 340.252C806.938 344.151 794.053 345.173 782.759 339.767C774.489 335.808 767.975 329.219 762.945 321.705C751.859 305.193 745.921 285.593 746.878 265.673C746.945 263.772 743.946 263.823 743.878 265.725C743.068 282.541 747.043 298.475 754.7 313.346C761.429 326.632 771.145 339.066 785.636 344.218C803.245 350.415 822.229 343.488 837.883 334.917C844.917 330.995 850.932 325.991 857.246 320.982C862.968 316.382 868.729 314.083 874.732 319.98C882.158 327.254 884.58 340.114 882.549 349.95C880.051 361.695 871.503 370.643 860.991 375.825C859.305 376.654 860.85 379.228 862.536 378.399Z" fill="#161616"/>
</g>
</g>
<g id="Group_161">
<g id="Group_162">
<path id="Vector_110" d="M746.7 266.976C745.306 261.5 749.181 260.033 752.736 257.371C754.81 255.835 756.373 253.708 757.837 251.582C761.542 246.018 764.431 239.567 765.116 232.854C765.459 229.548 766.069 224.337 761.567 224.214C756.264 224.105 754.18 230.842 749.189 231.428C747.293 231.661 747.344 234.661 749.24 234.428C753.033 233.963 754.891 231.53 757.753 229.281C759.431 227.952 761.304 226.419 762.254 229.303C762.782 230.894 762.033 233.908 761.661 235.514C761.02 238.926 759.577 242.251 758.03 245.378C756.579 248.204 754.929 251.132 752.669 253.472C750.607 255.708 747.716 256.257 745.447 258.097C742.389 260.55 742.96 264.64 743.816 267.926C744.347 269.717 747.233 268.868 746.7 266.976Z" fill="#161616"/>
</g>
</g>
<g id="Group_163">
<g id="Group_164">
<path id="Vector_111" d="M711.534 251.78C709.312 238.916 708.885 225.721 710.662 212.789C711.373 207.576 712.281 202.259 713.995 197.229C715.041 194.111 716.479 190.485 718.636 187.948C721.579 184.597 727.448 182.795 729.145 188.367C729.677 190.258 732.563 189.408 732.03 187.517C730.548 182.742 725.904 180.222 721.137 182.204C715.081 184.809 712.311 192.357 710.509 198.089C705.208 215.483 705.542 234.88 708.548 252.631C708.98 254.524 711.866 253.674 711.534 251.78Z" fill="#161616"/>
</g>
</g>
<g id="Group_165">
<g id="Group_166">
<path id="Vector_112" d="M725.143 199.938C727.441 193.997 734.035 181.982 741.574 189.953C742.898 191.331 744.961 189.195 743.637 187.817C740.174 184.177 735.265 183.661 731.008 186.235C726.255 189.017 724.147 194.354 722.232 199.288C721.561 200.999 724.474 201.749 725.143 199.938Z" fill="#161616"/>
</g>
</g>
<g id="Group_167">
<g id="Group_168">
<path id="Vector_113" d="M737.784 202.22C737.819 198.419 739.246 194.194 742.915 192.331C745.989 190.777 749.7 191.414 751.846 194.077C753.072 195.556 755.136 193.42 753.91 191.941C750.948 188.392 745.734 187.581 741.667 189.552C736.907 191.934 734.797 197.171 734.785 202.272C734.718 204.173 737.717 204.122 737.784 202.22Z" fill="#161616"/>
</g>
</g>
<g id="Group_169">
<g id="Group_170">
<path id="Vector_114" d="M746.5 203.07C748.185 196.34 755.579 190.112 762.171 195.4C763.691 196.574 765.755 194.438 764.234 193.264C755.818 186.608 745.93 193.179 743.587 202.32C743.12 204.229 746.033 204.979 746.5 203.07Z" fill="#161616"/>
</g>
</g>
<g id="Group_171">
<g id="Group_172">
<path id="Vector_115" d="M761.562 194.91C764.839 199.354 757.788 202.276 755.325 204.419C753.254 206.155 752.092 208.375 751.236 210.89C748.955 217.83 747.984 225.348 747.508 232.557C747.341 234.461 750.34 234.409 750.508 232.506C750.916 227.198 751.625 221.885 752.835 216.663C753.206 214.957 753.577 213.25 754.147 211.54C755.387 208.018 757.264 206.686 760.128 204.536C763.682 201.874 767.409 197.61 764.132 193.165C763.008 191.785 760.435 193.329 761.562 194.91Z" fill="#161616"/>
</g>
</g>
<g id="Group_173">
<g id="Group_174">
<path id="Vector_116" d="M707.782 248.844C709.499 255.615 711.614 262.28 714.228 268.836C714.958 270.623 717.844 269.774 717.113 267.986C714.5 261.43 712.385 254.765 710.668 247.994C710.236 246.101 707.35 246.951 707.782 248.844Z" fill="#161616"/>
</g>
</g>
<g id="Group_175">
<g id="Group_176">
<path id="Vector_117" d="M713.76 270.744C718.152 305.074 727.258 340.222 750.816 366.62C769.58 387.6 799.055 403.295 827.759 397.5C841.314 394.767 853.595 387.754 863.33 378.085C864.708 376.761 862.57 374.598 861.194 376.022C841.724 395.36 813.615 400.844 788.324 389.978C761.116 378.145 741.821 355.374 730.653 328.262C723.136 309.888 719.199 290.353 716.662 270.794C716.527 268.796 713.528 268.848 713.76 270.744Z" fill="#161616"/>
</g>
</g>
</g>
</g>
</g>
</svg>
